<svg width="20" height="20" viewBox="0 0 20 20" fill="none" xmlns="http://www.w3.org/2000/svg">
<path d="M13.5714 0H6.42857C2.85714 0 0 2.96296 0 6.66667V19.2593C0 19.5556 0.142857 19.7778 0.428571 19.9259C0.5 20 0.642857 20 0.714286 20C0.857143 20 1.07143 19.9259 1.21429 19.8519C3.71429 17.5556 6.92857 16.2963 10.2143 16.2963H13.5714C17.1429 16.2963 20 13.3333 20 9.62963V6.66667C20 2.96296 17.1429 0 13.5714 0ZM7.64286 8.66667C7.57143 8.74074 7.5 8.81481 7.42857 8.81481C7.35714 8.88889 7.21429 8.88889 7.14286 8.88889C6.92857 8.88889 6.78571 8.81481 6.64286 8.66667C6.5 8.51852 6.42857 8.37037 6.42857 8.14815C6.42857 8.07407 6.42857 7.92593 6.5 7.85185C6.57143 7.77778 6.57143 7.7037 6.64286 7.62963C6.85714 7.40741 7.14286 7.33333 7.42857 7.48148C7.5 7.55556 7.57143 7.55556 7.64286 7.62963C7.71429 7.7037 7.78571 7.77778 7.78571 7.85185C7.85714 7.92593 7.85714 8.07407 7.85714 8.14815C7.85714 8.37037 7.78571 8.51852 7.64286 8.66667ZM10.5 8.66667C10.4286 8.66667 10.4286 8.74074 10.4286 8.74074C10.3571 8.74074 10.3571 8.81481 10.2857 8.81481C10.2143 8.81481 10.2143 8.81481 10.1429 8.88889C10.0714 8.88889 10.0714 8.88889 10 8.88889C9.78571 8.88889 9.64286 8.81481 9.5 8.66667C9.35714 8.51852 9.28571 8.37037 9.28571 8.14815C9.28571 7.92593 9.35714 7.77778 9.5 7.62963C9.57143 7.55556 9.64286 7.48148 9.71429 7.48148C10 7.33333 10.2857 7.40741 10.5 7.62963C10.6429 7.77778 10.7143 7.92593 10.7143 8.14815C10.7143 8.37037 10.6429 8.51852 10.5 8.66667ZM13.5 8.44444C13.4286 8.51852 13.4286 8.59259 13.3571 8.66667C13.2857 8.74074 13.2143 8.81481 13.1429 8.81481C13.0714 8.88889 12.9286 8.88889 12.8571 8.88889C12.7857 8.88889 12.6429 8.88889 12.5714 8.81481C12.5 8.74074 12.4286 8.74074 12.3571 8.66667C12.2857 8.59259 12.2143 8.51852 12.2143 8.44444C12.2143 8.37037 12.1429 8.22222 12.1429 8.14815C12.1429 8.07407 12.1429 7.92593 12.2143 7.85185C12.2857 7.77778 12.2857 7.7037 12.3571 7.62963C12.4286 7.55556 12.5 7.48148 12.5714 7.48148C12.7143 7.40741 12.9286 7.40741 13.1429 7.48148C13.2143 7.55556 13.2857 7.55556 13.3571 7.62963C13.4286 7.7037 13.5 7.77778 13.5 7.85185C13.5 7.92593 13.5714 8.07407 13.5714 8.14815C13.5714 8.22222 13.5714 8.37037 13.5 8.44444Z" fill="black"/>
</svg>
